<svg width="14" height="14" viewBox="0 0 14 14" fill="none" xmlns="http://www.w3.org/2000/svg">
<path fill-rule="evenodd" clip-rule="evenodd" d="M1.66341 6.33008C1.66341 3.75275 3.75275 1.66341 6.33008 1.66341C8.90741 1.66341 10.9967 3.75275 10.9967 6.33008C10.9967 7.58735 10.4995 8.7285 9.69105 9.56763C9.66821 9.58518 9.64624 9.60443 9.62532 9.62535C9.6044 9.64627 9.58516 9.66823 9.5676 9.69107C8.72847 10.4996 7.58734 10.9967 6.33008 10.9967C3.75275 10.9967 1.66341 8.90741 1.66341 6.33008ZM10.0752 11.018C9.04874 11.8391 7.74675 12.3301 6.33008 12.3301C3.01637 12.3301 0.330078 9.64379 0.330078 6.33008C0.330078 3.01637 3.01637 0.330078 6.33008 0.330078C9.64379 0.330078 12.3301 3.01637 12.3301 6.33008C12.3301 7.74676 11.8391 9.04877 11.018 10.0752L13.4681 12.5253C13.7285 12.7857 13.7285 13.2078 13.4681 13.4682C13.2078 13.7285 12.7857 13.7285 12.5253 13.4682L10.0752 11.018Z" fill="#2D3440"/>
</svg>
